<svg width="139" height="192" viewBox="0 0 139 192" fill="none" xmlns="http://www.w3.org/2000/svg">
<g clip-path="url(#clip0_45_292)">
<path d="M46.2123 38.4736C49.2458 38.0058 51.8969 37.3968 54.6035 37.1924C73.1246 36.0145 87.834 43.3899 99.5351 57.4133C105.785 64.8668 109.516 73.5415 110.238 83.384C110.914 92.7234 108.598 101.24 102.917 108.694C92.959 121.661 75.053 124.5 61.6383 115.273C55.6252 111.133 51.0605 105.556 47.3568 99.3749C38.5354 84.4686 35.3003 68.4748 37.8694 51.2179C37.9869 50.1347 38.0938 49.15 38.2542 47.6729C37.3056 48.1677 36.5857 48.3885 35.9427 48.8168C27.4529 54.6705 21.8938 62.8349 19.0454 72.5888C11.1286 99.7269 16.4352 124.116 35.433 145.108C45.8184 156.598 58.9877 163.507 74.7956 164.426C86.2586 165.072 97.5422 163.706 108.538 160.416C109.563 160.129 110.501 159.733 111.537 159.347C111.951 159.193 112.278 158.929 112.921 158.501C112.178 158.022 111.631 157.564 111.052 157.401C107.218 156.088 103.46 154.983 99.6258 153.67C98.5662 153.356 97.4191 152.933 96.5006 152.235C95.9431 151.876 95.3835 150.619 95.6335 150.148C95.9048 149.48 96.9516 148.996 97.6929 148.578C98.0091 148.413 98.479 148.664 98.8614 148.805C105.874 151.061 112.877 153.415 119.879 155.769C123.429 156.951 123.957 158.503 122.021 161.681C121.543 162.426 121.173 163.083 120.596 163.818C115.437 170.132 110.277 176.447 105.041 182.554C103.441 184.473 101.469 186.152 99.5077 187.732C98.6361 188.435 97.4804 189.007 96.3674 189.185C95.7564 189.318 94.62 188.796 94.291 188.163C93.9514 187.628 94.3531 186.675 94.4386 185.887C94.4707 185.592 94.7869 185.427 95.103 185.262C101.358 180.76 105.819 174.469 110.62 168.713C111.882 167.156 113.036 165.687 114.767 163.484C113.654 163.662 113.25 163.718 112.934 163.883C102.148 167.992 90.8639 169.358 79.4351 169.313C54.9733 169.348 36.7715 157.509 23.6161 137.648C12.9469 121.445 9.24843 103.309 11.7365 84.0506C12.9164 75.0122 15.6472 66.3415 20.6722 58.5177C24.9794 51.8115 30.5446 46.3378 37.6094 42.6211C39.6154 41.5436 40.6601 40.1625 41.5832 38.0707C43.3202 33.975 45.1556 29.8899 47.5377 26.2627C57.8377 10.1439 74.8511 3.62135 93.2457 9.1052C110.591 14.1763 122.385 25.5195 127.839 43.0494C128.873 46.3499 128.99 49.8499 129.402 53.3818C129.568 54.5955 129.222 55.9528 128.898 57.1132C128.594 58.0766 127.722 58.7791 126.674 58.3663C126.007 58.0947 125.503 57.2429 125.065 56.6972C124.89 56.4789 125.031 56.0957 125.063 55.8003C125.75 45.8117 121.986 37.4324 116.14 29.923C108.367 20.0126 98.2013 13.8278 85.4482 12.2442C74.4639 10.8526 65.0514 14.2149 56.9909 21.6096C52.231 26.0747 47.9453 32.584 46.2123 38.4736ZM41.8403 54.9369C40.5704 67.5523 42.6394 79.6334 48.0688 90.9833C51.3815 98.0184 55.6641 104.362 61.5704 109.486C75.7667 121.589 94.8116 115.585 102.037 101.225C105.841 93.6673 106.706 85.6908 104.515 77.4822C100.255 61.7757 90.0572 51.3031 75.3285 45.0216C66.0191 41.022 56.325 40.5676 46.5729 43.3948C44.5221 43.9693 43.5095 45.055 43.1974 47.0138C42.7999 49.7604 42.3254 52.2994 41.8403 54.9369Z" fill="#F16A42"/>
</g>
<defs>
<clipPath id="clip0_45_292">
<rect width="179.517" height="118.835" fill="white" transform="translate(138.304 13.2168) rotate(96.1949)"/>
</clipPath>
</defs>
</svg>
