<svg width="166" height="159" viewBox="0 0 166 159" fill="none" xmlns="http://www.w3.org/2000/svg">
<g clip-path="url(#clip0_58_1420)">
<path d="M65.3323 35.2188C63.403 36.578 61.6102 37.655 60.0024 38.9857C49.1183 48.2135 44.9076 60.1444 45.909 74.1516C46.4243 81.6129 48.9857 88.4069 53.8368 94.2418C58.4444 99.7742 64.2701 103.254 71.392 104.351C83.8237 106.22 95.2533 98.2399 97.759 85.9741C98.8802 80.474 98.4329 74.9508 97.1866 69.5525C94.1195 56.5926 87.3789 46.0105 76.7506 37.8252C76.1077 37.2882 75.5232 36.7999 74.6464 36.0675C75.4356 35.8355 75.952 35.5737 76.5366 35.4679C84.3604 34.1803 91.7939 35.7358 98.5744 39.6174C117.435 50.4214 127.507 66.7571 128.186 88.5159C128.564 100.418 124.957 111.269 116.694 120.211C110.692 126.684 103.715 131.947 95.8713 135.99C95.1503 136.378 94.4195 136.659 93.64 136.998C93.3282 137.134 93.0067 137.162 92.4221 137.268C92.5781 136.606 92.6366 136.061 92.8705 135.662C94.2934 132.89 95.7844 130.273 97.2073 127.501C97.6264 126.761 98.0357 125.915 98.1722 125.039C98.2892 124.542 97.9289 123.548 97.5392 123.421C97.0326 123.196 96.1946 123.486 95.5613 123.65C95.2983 123.727 95.1715 124.117 95.0351 124.399C92.3551 129.389 89.7335 134.428 87.1119 139.467C85.7768 142.016 86.3125 143.156 89.0793 143.883C89.7418 144.041 90.2971 144.207 91.0084 144.306C97.234 145.051 103.46 145.795 109.617 146.384C111.527 146.592 113.514 146.47 115.443 146.299C116.301 146.223 117.246 145.923 117.957 145.428C118.366 145.176 118.717 144.281 118.561 143.755C118.464 143.277 117.733 142.964 117.266 142.573C117.09 142.427 116.827 142.504 116.564 142.581C110.699 143.425 104.873 142.321 99.1441 141.695C97.6145 141.507 96.192 141.309 94.0584 141.012C94.7697 140.517 95.023 140.332 95.2861 140.255C103.451 136.777 110.428 131.514 116.732 125.392C130.296 112.362 134.06 96.0964 130.75 78.0813C128.014 63.4177 120.387 51.4019 108.736 42.0652C103.261 37.6898 97.1235 34.3453 90.1673 32.6935C84.2049 31.2777 78.2033 31.2156 72.3086 32.9262C70.623 33.3997 69.3077 33.1922 67.6808 32.5263C64.534 31.185 61.3385 29.902 58.0845 29.1643C43.7824 25.7333 30.882 31.1973 23.6217 44.0465C16.722 56.1077 16.2427 68.6799 22.5738 81.2966C23.762 83.6756 25.5642 85.6762 27.2202 87.8517C27.7754 88.6126 28.6911 89.1795 29.49 89.6488C30.1719 90.0204 31.0293 89.9444 31.3899 89.1564C31.6141 88.6504 31.4388 87.9099 31.3902 87.3741C31.3707 87.1598 31.0882 87.0228 30.9129 86.8763C25.2043 81.7115 22.8182 75.0641 22.0496 67.7872C21.067 58.1529 23.3968 49.3052 29.6139 41.6252C34.954 34.995 41.9596 31.8357 50.3678 31.6305C55.3854 31.5638 61.2309 32.882 65.3323 35.2188ZM76.5357 42.0029C83.9686 48.311 89.2676 56.1045 92.3157 65.2856C94.2343 70.9484 95.2467 76.7455 94.7099 82.7339C93.3049 97.0084 79.5567 103.844 67.895 99.7466C61.7573 97.5903 57.0228 93.6353 53.8572 87.9211C47.8377 76.951 47.8978 65.7121 52.7027 54.3767C55.7241 47.196 60.8496 41.773 67.7579 38.1363C69.1999 37.3603 70.3399 37.4213 71.5576 38.3395C73.2429 39.6484 74.8601 40.8012 76.5357 42.0029Z" fill="#F04A00"/>
</g>
<defs>
<clipPath id="clip0_58_1420">
<rect width="138.029" height="91.3715" fill="white" transform="matrix(0.767457 0.6411 0.6411 -0.767457 0.865234 70.3594)"/>
</clipPath>
</defs>
</svg>
