<svg width="101" height="100" viewBox="0 0 101 100" fill="none" xmlns="http://www.w3.org/2000/svg">
<g clip-path="url(#clip0_48_132)">
<path d="M42.051 22.1657C40.7981 22.8901 39.644 23.4498 38.5891 24.1744C31.4356 29.2143 28.2101 36.2708 28.0543 44.8811C27.9602 49.4666 29.1524 53.7566 31.7957 57.5863C34.3068 61.2179 37.6744 63.6628 41.9643 64.723C49.455 66.5454 56.8733 62.2976 59.0758 54.9431C60.062 51.6451 60.0914 48.2472 59.6259 44.8817C58.4627 36.7978 54.9255 29.9651 48.8823 24.3833C48.519 24.02 48.1888 23.6898 47.6934 23.1944C48.1881 23.0959 48.5179 22.9643 48.8808 22.9317C53.73 22.574 58.1851 23.9313 62.1138 26.6737C73.0417 34.3061 78.2984 44.8355 77.5208 58.1628C77.0996 65.4532 74.3023 71.8833 68.7653 76.8919C64.7443 80.5166 60.1947 83.3489 55.1823 85.389C54.7207 85.5864 54.259 85.7179 53.7643 85.8823C53.5664 85.9481 53.3685 85.9479 53.0056 85.9805C53.1371 85.5847 53.2028 85.2549 53.3675 85.0241C54.3885 83.4087 55.4425 81.8923 56.4635 80.2768C56.76 79.8483 57.0564 79.3537 57.1878 78.826C57.2864 78.5292 57.1208 77.9022 56.8898 77.803C56.5927 77.6378 56.065 77.7692 55.6691 77.8347C55.5042 77.8675 55.4055 78.0984 55.3067 78.2632C53.3964 81.1643 51.519 84.0985 49.6417 87.0326C48.6866 88.5161 48.9513 89.2422 50.6014 89.8378C50.9974 89.9702 51.3275 90.1025 51.7565 90.2019C55.5182 90.9977 59.2799 91.7934 63.0086 92.4902C64.1635 92.7224 65.3841 92.7566 66.5718 92.7579C67.0996 92.7585 67.6933 92.6271 68.1549 92.3637C68.4187 92.232 68.682 91.7045 68.6157 91.3745C68.5824 91.0775 68.1533 90.8461 67.8891 90.5819C67.79 90.4829 67.6251 90.5157 67.4602 90.5485C63.8315 90.7426 60.3334 89.7492 56.8687 89.0527C55.9448 88.8538 55.0868 88.6549 53.7999 88.3566C54.2615 88.0932 54.4263 87.9944 54.5912 87.9616C59.7689 86.2846 64.3186 83.4523 68.5047 80.0587C77.5034 72.8434 80.6931 63.1147 79.6585 51.9299C78.7911 42.8237 74.791 35.0667 68.1862 28.7255C65.082 25.7531 61.5165 23.374 57.3583 21.984C53.794 20.7926 50.1317 20.4258 46.4376 21.1477C45.3821 21.3445 44.5901 21.1457 43.6329 20.6498C41.7844 19.6581 39.9029 18.6994 37.9558 18.0705C29.4083 15.1913 21.2295 17.8218 16.091 25.2722C11.2158 32.2609 10.2343 39.9136 13.4099 47.9666C14.0053 49.4848 14.9964 50.8055 15.8887 52.225C16.1861 52.7202 16.7144 53.1166 17.1766 53.447C17.5728 53.7113 18.1006 53.7119 18.364 53.2503C18.5287 52.9536 18.4622 52.4916 18.4618 52.1617C18.4617 52.0298 18.2966 51.9306 18.1976 51.8316C14.9938 48.3642 13.9007 44.1732 13.8299 39.6865C13.7577 33.7482 15.6655 28.4718 19.8836 24.1215C23.5085 20.3645 27.9606 18.8187 33.1074 19.1541C36.1758 19.3883 39.6739 20.5137 42.051 22.1657ZM48.5221 26.9232C52.7164 31.1834 55.5259 36.2339 56.8847 42.0086C57.7462 45.5725 58.047 49.1687 57.391 52.797C55.7507 61.4386 46.9789 64.8603 40.0806 61.7189C36.4499 60.0655 33.7749 57.3905 32.1545 53.7268C29.0789 46.6966 29.7314 39.8354 33.2873 33.1751C35.5261 28.9547 38.9539 25.9233 43.3726 24.0805C44.2959 23.6856 44.9888 23.7853 45.6823 24.4129C46.64 25.3046 47.5645 26.0974 48.5221 26.9232Z" fill="#F04A00"/>
</g>
<defs>
<clipPath id="clip0_48_132">
<rect width="84.6451" height="56.0327" fill="white" transform="matrix(0.707107 0.707107 0.707107 -0.707107 0.749023 40.0967)"/>
</clipPath>
</defs>
</svg>
