<svg width="98" height="185" viewBox="0 0 98 185" fill="none" xmlns="http://www.w3.org/2000/svg">
<path d="M83.3402 86.6673C83.6899 106.622 59.9474 158.456 44.432 171.542C44.5399 169.416 44.4939 167.864 44.7736 166.245C45.1125 163.257 45.595 160.307 45.7902 157.28C45.8699 154.684 44.7414 153.15 42.8636 153.263C40.555 153.26 39.9879 154.802 39.6312 156.708C38.3865 164.226 37.2469 171.927 36.2509 179.666C35.7581 183.229 37.9307 184.888 41.5528 184.011C43.0381 183.64 44.4952 182.798 45.9805 182.427C55.554 179.449 64.9454 176.577 74.3369 173.705C75.1706 173.467 76.1094 173.41 76.5507 172.913C77.4332 171.917 78.5748 170.53 78.3748 169.552C78.2133 168.431 76.8641 167.146 75.7149 166.838C74.4221 166.492 72.9368 166.864 71.49 167.092C67.36 168.141 63.2966 169.515 59.1666 170.564C58.0071 170.869 56.8861 171.031 55.2571 171.364C55.6702 170.397 55.7857 169.966 56.0063 169.717C73.862 146.173 84.0198 119.181 90.4146 90.7183C91.3872 86.5141 91.7851 82.156 91.6752 77.9696C91.4037 72.6623 92.2814 67.6628 93.9158 62.7122C97.0026 52.9162 98.1449 42.907 96.4425 32.5975C95.5297 26.8104 93.6397 21.2233 90.5516 16.085C83.3136 4.60013 72.7249 -0.700439 59.178 0.442405C48.4477 1.4162 39.0254 6.12756 30.7598 12.8424C15.0341 25.5642 5.48254 42.2497 1.10982 62.0165C0.724923 63.4529 0.809457 64.8612 0.750346 66.231C0.575767 68.0317 1.31187 69.3067 3.21777 69.6634C5.12368 70.0201 6.08317 68.7376 6.50656 67.1575C6.7375 66.2957 6.86328 65.2516 7.09422 64.3898C10.3122 48.9324 17.8576 35.7122 28.6195 24.2777C34.6046 18.0295 41.6131 13.1332 49.7117 9.9147C55.0115 7.9477 60.4062 6.7759 66.0573 7.52031C75.415 8.79602 82.1815 13.9962 86.0799 22.4308C91.2402 33.051 91.0546 44.0863 88.4346 56.1629C87.3727 54.9546 86.6648 54.1491 86.1005 53.3821C85.6414 52.7971 85.2207 52.0686 84.8001 51.3401C77.8672 41.0147 67.2297 36.4708 55.1372 39.0811C52.3488 39.7195 49.5219 40.5017 47.049 41.6865C25.952 52.0453 15.0203 69.2848 13.4792 92.2736C12.873 102.58 16.8766 111.197 26.3827 116.516C32.6723 120.048 39.4162 120.162 46.2295 118.292C52.3912 116.556 57.8553 113.402 62.9373 109.375C69.774 103.971 75.5488 97.3582 80.6823 90.266C81.4597 89.0887 82.3422 88.0935 83.3402 86.6673ZM21.1936 81.87C24.7601 71.4327 31.1714 61.2958 39.1112 54.6476C44.088 50.4386 49.7343 47.1788 56.25 45.8455C65.6592 44.0558 73.1853 46.9962 78.4253 55.0205C80.6054 58.3759 81.98 62.4393 83.2495 66.3205C83.7265 67.9879 83.4364 70.2195 82.8694 71.7611C76.4244 86.0459 67.453 98.2681 54.2133 106.883C50.6757 109.169 46.5353 110.83 42.5874 111.774C31.2901 114.289 22.1304 107.678 21.0231 96.2965C20.2719 91.6304 21.1111 86.7746 21.1936 81.87Z" fill="#F16A42"/>
</svg>
