<svg width="162" height="70" viewBox="0 0 162 70" fill="none" xmlns="http://www.w3.org/2000/svg">
<path d="M17.3726 15.36C16.9788 15.5341 16.5002 15.4202 16.2569 15.0676C15.8518 14.4869 15.3726 14.0078 14.8071 13.6354C14.0536 13.1459 13.0861 12.8936 11.901 12.8873C10.9338 12.8785 10.0756 13.0762 9.29973 13.4698C8.53269 13.8669 7.88402 14.4238 7.36623 15.1354C6.84839 15.8469 6.43862 16.6938 6.16697 17.678C5.88653 18.6587 5.74636 19.7472 5.74139 20.9313C5.7334 22.0737 5.86469 23.1308 6.128 24.1202C6.39498 25.1008 6.7946 25.9632 7.32173 26.695C7.84886 27.4268 8.49316 28.0036 9.25835 28.4168C10.0235 28.8299 10.8853 29.0391 11.8525 29.0479C13.0376 29.0543 14.0117 28.8024 14.7712 28.3008C15.3629 27.9032 15.9411 27.3175 16.4882 26.5368C16.7643 26.1525 17.2814 26.0287 17.6927 26.2773L20.5774 27.9799C20.9923 28.2199 21.1376 28.7556 20.9018 29.1665C20.0482 30.6233 18.9418 31.7742 17.6 32.6266C16.0208 33.6255 14.0461 34.1186 11.6759 34.1059C9.96467 34.098 8.42762 33.7759 7.04872 33.1533C5.66977 32.5306 4.4769 31.639 3.48395 30.4943C2.49106 29.3497 1.72091 27.9714 1.18594 26.3544C0.651024 24.7374 0.3844 22.9255 0.402204 20.9052C0.41718 18.9648 0.704616 17.1861 1.28212 15.5762C1.85967 13.9664 2.65911 12.5889 3.68047 11.4438C4.70179 10.2987 5.91651 9.40468 7.32967 8.77404C8.74287 8.14339 10.3025 7.82588 12.0049 7.83012C13.2113 7.83505 14.3166 7.98126 15.2996 8.27023C16.2861 8.55058 17.1702 8.9513 17.9414 9.44801C18.7214 9.94831 19.3972 10.5481 19.9727 11.2388C20.3513 11.6871 20.6851 12.1678 20.9903 12.6672C21.2573 13.1105 21.0636 13.6906 20.5877 13.9124L17.3675 15.3477L17.3726 15.36Z" fill="#F04A00"/>
<path d="M43.9491 33.8947C43.453 33.8953 43.0526 33.499 43.0607 33.0157L43.1123 24.541C43.1133 24.1967 43.1208 23.7638 43.1384 23.2336C43.1561 22.7035 43.1597 22.1576 43.1707 21.5943C43.1817 21.031 43.1832 20.5146 43.2002 20.0349C43.2171 19.5551 43.2291 19.1849 43.2287 18.9415C43.0239 19.4257 42.7533 20.0657 42.4168 20.8613C42.0803 21.6569 41.7372 22.4194 41.3875 23.1488L36.9125 32.6801C36.5898 33.3699 35.6014 33.3625 35.2827 32.6751L30.8882 23.0883C30.5452 22.3606 30.2081 21.5946 29.8768 20.7905C29.5455 19.9865 29.29 19.345 29.0927 18.8591C29.093 19.1026 29.0935 19.4677 29.1067 19.9496C29.1161 20.44 29.1146 20.9565 29.1161 21.5147C29.1176 22.0729 29.1139 22.6189 29.1264 23.1511C29.1389 23.6834 29.1402 24.1199 29.1392 24.4642L29.0876 32.9389C29.0882 33.4258 28.6844 33.8188 28.1921 33.8108L24.9061 33.7899C24.41 33.7906 24.0096 33.3942 24.0177 32.9109L24.1536 9.19242C24.1529 8.70553 24.5567 8.31245 25.0491 8.32043L28.5831 8.34104C28.9338 8.34202 29.2519 8.54256 29.3983 8.85569L34.5051 19.9087C34.6722 20.2708 34.8496 20.6573 35.0197 21.0611C35.1897 21.465 35.3546 21.8566 35.5107 22.2446C35.6668 22.6326 35.8126 22.9962 35.9481 23.3352C36.0835 23.6743 36.1808 23.9572 36.2559 24.1704C36.4307 23.684 36.6837 23.0368 37.0061 22.2254C37.3287 21.4139 37.6718 20.6514 38.0128 19.9185L43.0419 8.93002C43.1861 8.61364 43.5094 8.41079 43.8602 8.41178L47.5393 8.43076C48.0355 8.43012 48.4358 8.82645 48.4277 9.30975L48.2921 33.0283C48.2926 33.5152 47.8888 33.9082 47.3967 33.9003L43.9652 33.881L43.9491 33.8947Z" fill="#F04A00"/>
<path d="M27.1914 50.438L27.1674 42.1647L34.8431 42.1449C36.2036 42.1402 37.3023 42.4456 38.118 43.0629C39.0061 43.7291 39.4514 44.7951 39.4646 46.2348C39.4702 47.7928 38.876 50.4055 34.876 50.4217L27.2003 50.4415L27.1914 50.438ZM37.7215 53.1286L38.6264 52.781C40.0957 52.2136 41.2064 51.3924 41.925 50.3241C42.6471 49.2476 43.0076 47.8251 43.001 46.095C43.001 44.8726 42.7861 43.7972 42.3683 42.9138C41.9506 42.0305 41.3817 41.2892 40.6704 40.6933C39.9502 40.0938 39.0931 39.652 38.1325 39.3611C37.1329 39.0648 36.0636 38.9125 34.9475 38.9234L24.6925 38.9585C24.1965 38.9633 23.7998 39.3511 23.8047 39.838L23.8734 61.7972C23.8784 62.2838 24.2735 62.6732 24.7696 62.6688L26.3355 62.6648C26.8315 62.6599 27.2282 62.272 27.2233 61.7854L27.1975 53.4914L33.876 53.4687L38.2879 62.1324C38.4407 62.4356 38.7553 62.6215 39.0936 62.6244L41.0705 62.6224C41.7295 62.622 42.1665 61.9367 41.8714 61.355L37.7143 53.1458L37.7215 53.1286Z" fill="#030303"/>
<path d="M54.052 41.4369C53.9908 41.261 53.94 41.1095 53.8964 40.9911L54.0561 41.4282L54.0485 41.4456L54.052 41.4369ZM55.6205 38.8579L53.0451 38.8645C52.6729 38.8681 52.344 39.0911 52.2134 39.433L43.7206 61.4137C43.4931 61.9899 43.928 62.6071 44.5569 62.6047L46.247 62.5997C46.6277 62.5992 46.9637 62.3592 47.0892 62.0047L48.7084 57.4562L48.9043 56.9075L54.2765 42.0412C54.2765 42.0412 54.2765 42.0412 54.2675 42.0377C54.2675 42.0377 54.271 42.029 54.2745 42.0203L54.264 42.0463C54.7958 43.5509 55.5813 45.7624 55.6396 45.8965C55.6396 45.8965 55.6376 45.8757 55.627 45.8513C55.5326 45.5814 55.4522 45.3272 55.3774 45.0852L59.6428 56.873L59.9331 57.6652L59.9983 57.8323L61.498 61.9544C61.6205 62.3059 61.965 62.544 62.3457 62.544L64.1899 62.5396C64.8187 62.5371 65.2486 61.9199 65.0226 61.3451L56.4527 39.4109C56.3176 39.0643 55.9876 38.8421 55.6155 38.8458L55.6205 38.8579Z" fill="#030303"/>
<path d="M77.3068 50.2561L70.3716 50.2773L70.342 42.0423L77.2043 42.0226C78.5648 42.0178 79.6778 42.339 80.52 42.9668C81.431 43.6522 81.8926 44.7044 81.8971 46.0902C81.9061 47.6394 81.3155 50.2433 77.3068 50.2561ZM84.8265 49.4166C85.2434 48.4812 85.4488 47.3101 85.4473 45.966C85.4478 44.7437 85.2323 43.6682 84.815 42.7849C84.3971 41.9016 83.8281 41.1602 83.117 40.5643C82.3968 39.9649 81.5395 39.5231 80.5787 39.2321C79.5793 38.9358 78.5101 38.7836 77.3942 38.7945L67.8831 38.8222C67.3869 38.8271 66.9901 39.2149 66.9952 39.7018L67.064 61.6607C67.069 62.1477 67.4642 62.5372 67.9599 62.5322L69.5259 62.5283C70.0221 62.5239 70.4188 62.1359 70.4138 61.6489L70.3877 53.5062L76.9934 53.4855C78.2384 53.4855 79.4156 53.3267 80.4743 53.0305C81.4958 52.7495 82.3923 52.2979 83.123 51.6995C83.8502 51.1094 84.4223 50.3468 84.8265 49.4166Z" fill="#030303"/>
<path d="M90.3059 38.7558L88.74 38.7596C88.2443 38.7645 87.8476 39.1523 87.8526 39.6392L87.9209 61.5984C87.9259 62.0854 88.3212 62.4744 88.8174 62.4699L90.3833 62.466C90.879 62.461 91.2757 62.0731 91.2707 61.5865L91.2481 53.435L103.758 53.397L103.781 61.5486C103.786 62.0356 104.181 62.4251 104.677 62.4201L106.243 62.4162C106.739 62.4113 107.136 62.0233 107.131 61.5367L107.062 39.5775C107.057 39.0907 106.662 38.7012 106.166 38.7061L104.6 38.7099C104.104 38.7148 103.707 39.1026 103.712 39.5895L103.742 50.1682L91.232 50.2061L91.2024 39.6272C91.1974 39.1403 90.8021 38.7509 90.3059 38.7558Z" fill="#030303"/>
<path d="M113.397 38.6915L111.831 38.6953C111.335 38.7001 110.938 39.0879 110.943 39.5748L111.012 61.5339C111.017 62.0209 111.412 62.4104 111.908 62.4054L113.474 62.4015C113.97 62.3966 114.367 62.0091 114.362 61.522L114.293 39.5629C114.288 39.076 113.893 38.6866 113.397 38.6915Z" fill="#030303"/>
<path d="M131.538 58.5303C130.637 59.1421 129.489 59.4537 128.12 59.4546C127.008 59.4571 125.987 59.2126 125.093 58.7359C124.207 58.2627 123.452 57.5991 122.846 56.7725C122.254 55.961 121.793 55.0101 121.496 53.9325C121.198 52.8845 121.045 51.7325 121.042 50.5188C121.039 49.2549 121.184 48.0801 121.471 47.0328C121.761 45.956 122.207 45.0016 122.784 44.2007C123.381 43.3773 124.128 42.7145 125.016 42.2592C125.911 41.7865 126.923 41.5526 128.027 41.5468C129.388 41.5421 130.532 41.8356 131.43 42.4045C131.903 42.7038 132.336 43.0777 132.713 43.5105C132.98 43.8089 133.409 43.9186 133.776 43.7515L135.411 43.0072C135.918 42.7746 136.086 42.1441 135.755 41.6993C135.64 41.5528 135.526 41.4063 135.408 41.2684C134.891 40.649 134.267 40.1178 133.567 39.668C132.864 39.2268 132.053 38.8739 131.15 38.6163C130.244 38.3673 129.216 38.2412 128.094 38.24C126.528 38.2438 125.085 38.549 123.805 39.1313C122.522 39.7223 121.404 40.5608 120.479 41.6072C119.545 42.6709 118.812 43.9753 118.286 45.4737C117.754 46.9894 117.496 48.6853 117.499 50.5247C117.503 52.4359 117.766 54.1672 118.282 55.6855C118.788 57.1791 119.512 58.4672 120.439 59.5128C121.348 60.551 122.457 61.3555 123.718 61.9175C124.979 62.4789 126.418 62.7579 127.984 62.7545C130.169 62.7446 131.995 62.2877 133.401 61.3722C134.357 60.7521 135.179 59.9575 135.864 58.9972C136.159 58.5791 136.048 57.9999 135.591 57.7372L134.163 56.907C133.781 56.6842 133.289 56.7813 133.013 57.1264C132.537 57.7051 132.044 58.1759 131.542 58.5215L131.538 58.5303Z" fill="#030303"/>
<path d="M156.089 55.4499C156.086 54.2362 155.863 53.2286 155.414 52.4739C154.962 51.698 154.366 51.0473 153.645 50.5484C152.893 50.0273 152.037 49.6063 151.107 49.3175C150.106 49 149.087 48.7262 148.083 48.489C147.032 48.2429 146.154 48.0253 145.475 47.826C144.748 47.6177 144.143 47.3874 143.691 47.1369C143.153 46.8425 142.756 46.4826 142.508 46.0608C142.274 45.6547 142.149 45.1603 142.146 44.5935C142.143 44.1779 142.238 43.7714 142.405 43.3931C142.591 42.9922 142.892 42.637 143.307 42.3276C143.692 42.0458 144.174 41.8235 144.747 41.6572C145.295 41.5013 145.969 41.4155 146.739 41.4187C148.057 41.4174 149.262 41.6641 150.33 42.1694C150.917 42.4431 151.484 42.7898 152.027 43.1971C152.381 43.4595 152.884 43.4373 153.198 43.1273L154.389 41.9848C154.767 41.6195 154.752 41.0074 154.331 40.6787C153.546 40.0634 152.714 39.5608 151.842 39.1538C150.451 38.5098 148.785 38.1811 146.899 38.1888C145.714 38.1925 144.588 38.3512 143.552 38.6668C142.538 38.9807 141.645 39.4238 140.891 40.0031C140.157 40.5599 139.58 41.2599 139.157 42.0615C138.746 42.8578 138.541 43.7768 138.546 44.7887C138.551 45.9224 138.721 46.8586 139.067 47.5921C139.399 48.3099 139.883 48.9065 140.481 49.3766C141.12 49.8735 141.907 50.2871 142.82 50.6194C143.78 50.961 144.845 51.273 145.995 51.5284C147.224 51.7941 148.246 52.0593 149.041 52.3043C149.897 52.5739 150.544 52.8515 151.032 53.1665C151.574 53.5234 151.956 53.9182 152.181 54.3713C152.387 54.7962 152.494 55.2837 152.496 55.8294C152.495 57.1023 151.972 58.0965 150.984 58.694C150.107 59.2239 148.835 59.4862 147.094 59.4911C145.725 59.4926 144.404 59.2506 143.175 58.762C142.397 58.4525 141.661 58.0182 140.974 57.4626C140.626 57.1826 140.134 57.1787 139.794 57.4784L138.599 58.5289C138.208 58.8784 138.209 59.4749 138.588 59.8273C139.329 60.5263 140.219 61.1125 141.25 61.5827C142.903 62.3409 144.77 62.7294 146.802 62.719C148.483 62.7101 149.937 62.5302 151.118 62.1615C152.262 61.808 153.219 61.3096 153.964 60.6762C154.693 60.057 155.228 59.3097 155.561 58.4525C155.909 57.5602 156.085 56.5595 156.082 55.4671L156.089 55.4499Z" fill="#030303"/>
<path d="M20.3643 50.4221L13.4078 50.4448C12.9117 50.4497 12.515 50.8377 12.52 51.3247L12.5235 52.5384C12.5285 53.0249 12.9236 53.4144 13.4196 53.4094L18.0059 53.3941L18.0874 53.3961C18.0574 54.1927 17.9895 54.731 17.9387 55.0041C17.9115 55.1446 17.8752 55.3325 17.8679 55.4C17.768 55.9664 17.5636 56.5116 17.3471 57.0115C17.0859 57.5946 16.717 58.1147 16.2457 58.5337C15.7708 58.9611 15.1512 59.2904 14.4168 59.5241C13.716 59.7503 12.8564 59.8632 11.8804 59.8593C10.7679 59.8613 9.74684 59.6172 8.85259 59.1406C7.96717 58.6673 7.21188 58.0033 6.60615 57.1766C6.01448 56.3657 5.55636 55.4054 5.25462 54.316C5.2494 54.3037 5.24769 54.2829 5.24603 54.2617C4.96012 53.2088 4.81277 52.0691 4.81277 50.847C4.80945 49.5831 4.95454 48.4081 5.24252 47.3608C5.53245 46.284 5.97772 45.3296 6.55517 44.5287C7.15222 43.7053 7.89912 43.0425 8.7868 42.5872C9.68165 42.1145 10.6942 41.8806 11.7978 41.8748C12.5808 41.8729 13.2907 41.9733 13.901 42.1654C14.5166 42.3696 15.061 42.6467 15.5254 42.9929C15.9809 43.3356 16.3829 43.7581 16.7262 44.2481C16.7456 44.276 16.7561 44.3004 16.7755 44.3283C17.0131 44.6754 17.4695 44.8163 17.8634 44.6598L19.5706 43.9645C20.0799 43.7528 20.2704 43.1416 19.9766 42.6813C19.8147 42.425 19.644 42.1652 19.4626 41.9314C18.9396 41.2285 18.3169 40.6173 17.6088 40.1136C16.9059 39.622 16.075 39.2412 15.155 38.9765C14.2137 38.7135 13.1072 38.5767 11.8583 38.5853C10.2923 38.5891 8.84902 38.8943 7.56926 39.4766C6.28593 40.0676 5.16804 40.9062 4.24229 41.9525C3.30942 43.0162 2.57562 44.3207 2.05005 45.819C1.51734 47.3347 1.26015 49.0306 1.26271 50.8702C1.26628 52.0839 1.37109 53.2265 1.58439 54.2815C1.70216 54.8937 1.86438 55.4734 2.04613 56.031C2.55156 57.5246 3.27577 58.8127 4.20297 59.8583C5.11249 60.8965 6.22145 61.701 7.48202 62.2629C8.7426 62.8244 10.1816 63.1034 11.7475 63.0995C13.147 63.1005 14.4429 62.8782 15.612 62.4641C16.7564 62.0603 17.7599 61.4491 18.587 60.6663C19.4142 59.8839 20.0668 58.901 20.5395 57.7553C20.962 56.731 21.1869 55.5375 21.2352 54.2233L21.292 53.3872C21.2998 53.2187 21.2988 53.0466 21.2978 52.8741L21.2905 51.2956C21.2855 50.8086 20.8905 50.4191 20.3944 50.4241L20.3643 50.4221Z" fill="#030303"/>
</svg>
