<svg width="32" height="32" viewBox="0 0 32 32" fill="none" xmlns="http://www.w3.org/2000/svg">
<rect width="32" height="32" rx="16" fill="#F04A01"/>
<path d="M12.3559 16.916L14.3239 17.96C13.7599 19.064 12.8239 20.132 10.8319 20.132C8.33591 20.132 7.00391 18.284 7.00391 15.8C7.00391 13.1 8.58791 11.468 10.8439 11.468C12.9079 11.468 13.7239 12.356 14.2999 13.94L12.1879 14.768C11.8879 13.988 11.5999 13.496 10.8319 13.496C9.85991 13.496 9.43991 14.468 9.43991 15.8C9.43991 17.084 9.84791 18.104 10.8559 18.104C11.5879 18.104 11.8999 17.708 12.3559 16.916Z" fill="black"/>
<path d="M24.0025 11.6V20H21.8185V17.996C21.8185 17.168 21.8305 16.412 21.8665 15.764C21.6145 16.388 21.1825 17.36 20.8945 17.96L19.7905 20.288L18.6865 17.96C18.3985 17.36 17.9665 16.388 17.7145 15.764C17.7505 16.412 17.7625 17.168 17.7625 17.996V20H15.5785V11.6H17.7145L18.7465 13.844C19.2385 14.924 19.6705 15.908 19.8025 16.376C19.9465 15.896 20.3305 14.984 20.8585 13.844L21.8905 11.6H24.0025Z" fill="black"/>
</svg>
