<svg width="49" height="28" viewBox="0 0 49 28" fill="none" xmlns="http://www.w3.org/2000/svg">
<path d="M17.3975 8.40883C17.0037 8.58289 16.5251 8.46902 16.2818 8.11641C15.8767 7.5357 15.3975 7.0566 14.832 6.68426C14.0785 6.19471 13.111 5.94246 11.9259 5.9361C10.9587 5.92728 10.1005 6.125 9.32463 6.51858C8.55759 6.91576 7.90892 7.47265 7.39113 8.18419C6.87329 8.89577 6.46353 9.74262 6.19188 10.7269C5.91143 11.7075 5.77126 12.796 5.76629 13.9801C5.75831 15.1225 5.88959 16.1797 6.1529 17.169C6.41988 18.1496 6.8195 19.012 7.34663 19.7438C7.87376 20.4756 8.51806 21.0525 9.28325 21.4656C10.0484 21.8787 10.9102 22.0879 11.8774 22.0967C13.0625 22.1031 14.0366 21.8512 14.7961 21.3496C15.3878 20.952 15.966 20.3664 16.5131 19.5856C16.7892 19.2013 17.3063 19.0775 17.7176 19.3262L20.6023 21.0287C21.0172 21.2687 21.1625 21.8044 20.9268 22.2153C20.0731 23.6721 18.9667 24.823 17.6249 25.6754C16.0457 26.6743 14.071 27.1674 11.7008 27.1547C9.98957 27.1468 8.45252 26.8247 7.07362 26.2021C5.69468 25.5794 4.5018 24.6878 3.50886 23.5432C2.51597 22.3985 1.74581 21.0202 1.21084 19.4032C0.675927 17.7862 0.409302 15.9743 0.427106 13.954C0.442082 12.0136 0.729518 10.2349 1.30702 8.62504C1.88457 7.01524 2.68401 5.63776 3.70538 4.49262C4.72669 3.34753 5.94142 2.4535 7.35457 1.82286C8.76777 1.19222 10.3274 0.874709 12.0298 0.878948C13.2362 0.883878 14.3415 1.03009 15.3245 1.31906C16.311 1.59941 17.1951 2.00013 17.9663 2.49684C18.7463 2.99714 19.4221 3.59697 19.9976 4.28765C20.3762 4.7359 20.71 5.21658 21.0152 5.71605C21.2822 6.15936 21.0885 6.73943 20.6126 6.96121L17.3924 8.39655L17.3975 8.40883Z" fill="#F16A42"/>
<path d="M43.974 26.9435C43.4779 26.9442 43.0775 26.5478 43.0856 26.0645L43.1372 17.5898C43.1382 17.2455 43.1457 16.8126 43.1633 16.2825C43.181 15.7523 43.1846 15.2064 43.1956 14.6431C43.2066 14.0798 43.2081 13.5634 43.2251 13.0837C43.242 12.604 43.254 12.2338 43.2536 11.9903C43.0488 12.4746 42.7782 13.1145 42.4417 13.9102C42.1053 14.7057 41.7621 15.4682 41.4124 16.1976L36.9374 25.729C36.6147 26.4187 35.6263 26.4114 35.3076 25.7239L30.9131 16.1371C30.5701 15.4094 30.233 14.6435 29.9017 13.8394C29.5704 13.0353 29.3149 12.3939 29.1176 11.908C29.1179 12.1514 29.1184 12.5166 29.1316 12.9984C29.141 13.4889 29.1395 14.0053 29.141 14.5635C29.1425 15.1217 29.1388 15.6677 29.1513 16.1999C29.1638 16.7322 29.1651 17.1687 29.1641 17.513L29.1125 25.9877C29.1131 26.4746 28.7093 26.8676 28.217 26.8597L24.931 26.8388C24.4349 26.8394 24.0345 26.4431 24.0426 25.9598L24.1785 2.24125C24.1778 1.75436 24.5816 1.36127 25.074 1.36926L28.608 1.38987C28.9587 1.39085 29.2768 1.59139 29.4232 1.90451L34.53 12.9575C34.6971 13.3196 34.8745 13.7061 35.0446 14.1099C35.2146 14.5138 35.3795 14.9054 35.5356 15.2934C35.6917 15.6814 35.8375 16.045 35.973 16.3841C36.1084 16.7231 36.2057 17.0061 36.2808 17.2192C36.4556 16.7328 36.7086 16.0856 37.0311 15.2742C37.3536 14.4628 37.6967 13.7003 38.0377 12.9673L43.0669 1.97885C43.211 1.66247 43.5343 1.45962 43.8851 1.46061L47.5642 1.47958C48.0604 1.47894 48.4607 1.87528 48.4526 2.35858L48.317 26.0771C48.3175 26.564 47.9137 26.9571 47.4216 26.9491L43.9901 26.9298L43.974 26.9435Z" fill="#F16A42"/>
</svg>
