<svg width="24" height="25" viewBox="0 0 24 25" fill="none" xmlns="http://www.w3.org/2000/svg">
<path d="M16.5 6.12891H13.5C12.9477 6.12891 12.5 6.57663 12.5 7.12891V10.1289H16.5C16.6137 10.1264 16.7216 10.1793 16.7892 10.2708C16.8568 10.3623 16.8758 10.4809 16.84 10.5889L16.1 12.7889C16.0318 12.9908 15.8431 13.1273 15.63 13.1289H12.5V20.6289C12.5 20.905 12.2761 21.1289 12 21.1289H9.5C9.22386 21.1289 9 20.905 9 20.6289V13.1289H7.5C7.22386 13.1289 7 12.905 7 12.6289V10.6289C7 10.3528 7.22386 10.1289 7.5 10.1289H9V7.12891C9 4.91977 10.7909 3.12891 13 3.12891H16.5C16.7761 3.12891 17 3.35277 17 3.62891V5.62891C17 5.90505 16.7761 6.12891 16.5 6.12891Z" fill="black"/>
</svg>
