<svg width="24" height="25" viewBox="0 0 24 25" fill="none" xmlns="http://www.w3.org/2000/svg">
<path fill-rule="evenodd" clip-rule="evenodd" d="M16 3.12891H8C5.23858 3.12891 3 5.36749 3 8.12891V16.1289C3 18.8903 5.23858 21.1289 8 21.1289H16C18.7614 21.1289 21 18.8903 21 16.1289V8.12891C21 5.36749 18.7614 3.12891 16 3.12891ZM19.25 16.1289C19.2445 17.9215 17.7926 19.3734 16 19.3789H8C6.20735 19.3734 4.75549 17.9215 4.75 16.1289V8.12891C4.75549 6.33626 6.20735 4.8844 8 4.87891H16C17.7926 4.8844 19.2445 6.33626 19.25 8.12891V16.1289ZM16.75 8.37891C17.3023 8.37891 17.75 7.93119 17.75 7.37891C17.75 6.82663 17.3023 6.37891 16.75 6.37891C16.1977 6.37891 15.75 6.82663 15.75 7.37891C15.75 7.93119 16.1977 8.37891 16.75 8.37891ZM12 7.62891C9.51472 7.62891 7.5 9.64363 7.5 12.1289C7.5 14.6142 9.51472 16.6289 12 16.6289C14.4853 16.6289 16.5 14.6142 16.5 12.1289C16.5027 10.9346 16.0294 9.78848 15.1849 8.94399C14.3404 8.0995 13.1943 7.62625 12 7.62891ZM9.25 12.1289C9.25 13.6477 10.4812 14.8789 12 14.8789C13.5188 14.8789 14.75 13.6477 14.75 12.1289C14.75 10.6101 13.5188 9.37891 12 9.37891C10.4812 9.37891 9.25 10.6101 9.25 12.1289Z" fill="black"/>
</svg>
