<svg width="24" height="25" viewBox="0 0 24 25" fill="none" xmlns="http://www.w3.org/2000/svg">
<path fill-rule="evenodd" clip-rule="evenodd" d="M5 3.12891H19C20.1046 3.12891 21 4.02434 21 5.12891V19.1289C21 20.2335 20.1046 21.1289 19 21.1289H5C3.89543 21.1289 3 20.2335 3 19.1289V5.12891C3 4.02434 3.89543 3.12891 5 3.12891ZM8 18.1289C8.27614 18.1289 8.5 17.905 8.5 17.6289V10.6289C8.5 10.3528 8.27614 10.1289 8 10.1289H6.5C6.22386 10.1289 6 10.3528 6 10.6289V17.6289C6 17.905 6.22386 18.1289 6.5 18.1289H8ZM7.25 9.12891C6.42157 9.12891 5.75 8.45734 5.75 7.62891C5.75 6.80048 6.42157 6.12891 7.25 6.12891C8.07843 6.12891 8.75 6.80048 8.75 7.62891C8.75 8.45734 8.07843 9.12891 7.25 9.12891ZM17.5 18.1289C17.7761 18.1289 18 17.905 18 17.6289V13.0289C18.0325 11.4397 16.8576 10.0834 15.28 9.88891C14.177 9.78816 13.1083 10.3033 12.5 11.2289V10.6289C12.5 10.3528 12.2761 10.1289 12 10.1289H10.5C10.2239 10.1289 10 10.3528 10 10.6289V17.6289C10 17.905 10.2239 18.1289 10.5 18.1289H12C12.2761 18.1289 12.5 17.905 12.5 17.6289V13.8789C12.5 13.0505 13.1716 12.3789 14 12.3789C14.8284 12.3789 15.5 13.0505 15.5 13.8789V17.6289C15.5 17.905 15.7239 18.1289 16 18.1289H17.5Z" fill="black"/>
</svg>
