<svg width="24" height="25" viewBox="0 0 24 25" fill="none" xmlns="http://www.w3.org/2000/svg">
<path d="M20.9727 6.84631C20.5083 7.46583 19.9469 8.00624 19.3102 8.44667C19.3102 8.6085 19.3102 8.77033 19.3102 8.94116C19.3153 11.88 18.1414 14.698 16.0517 16.7634C13.9619 18.8288 11.1311 19.9688 8.19393 19.9278C6.49587 19.9335 4.81955 19.5458 3.2963 18.795C3.21416 18.7591 3.16119 18.6779 3.1615 18.5882V18.4893C3.1615 18.3602 3.26611 18.2556 3.39515 18.2556C5.0643 18.2005 6.6739 17.6218 7.99622 16.6013C6.48541 16.5708 5.12607 15.6758 4.50048 14.2996C4.46889 14.2245 4.47872 14.1382 4.52645 14.0721C4.57417 14.006 4.65288 13.9696 4.73413 13.976C5.1933 14.0221 5.65706 13.9794 6.10008 13.8501C4.43227 13.5039 3.17909 12.1193 2.99974 10.4246C2.99337 10.3433 3.0298 10.2646 3.09588 10.2168C3.16195 10.1691 3.24812 10.1592 3.32326 10.1909C3.77082 10.3884 4.25397 10.4924 4.74312 10.4965C3.28172 9.53737 2.65049 7.71296 3.20643 6.05513C3.26382 5.89404 3.40169 5.77503 3.56938 5.74185C3.73706 5.70866 3.90984 5.76619 4.0242 5.8933C5.99627 7.99216 8.70592 9.24287 11.5818 9.3817C11.5082 9.08776 11.472 8.78567 11.474 8.48263C11.5009 6.89363 12.4841 5.47812 13.9633 4.89878C15.4424 4.31945 17.1248 4.69094 18.2229 5.83935C18.9713 5.69676 19.6949 5.44536 20.3706 5.09312C20.4201 5.06222 20.4829 5.06222 20.5324 5.09312C20.5633 5.14264 20.5633 5.20543 20.5324 5.25495C20.2051 6.00443 19.6522 6.63303 18.9508 7.0531C19.565 6.98187 20.1684 6.83698 20.7481 6.62155C20.7969 6.58833 20.861 6.58833 20.9098 6.62155C20.9507 6.64025 20.9813 6.67602 20.9934 6.71933C21.0055 6.76264 20.9979 6.80909 20.9727 6.84631Z" fill="black"/>
</svg>
